<?xml version="1.0" encoding="UTF-8"?>
<svg version="1.1" viewBox="0 0 2048 1698" width="240" height="199" xmlns="http://www.w3.org/2000/svg">
<path transform="translate(0)" d="m0 0h2048v1698h-2048z" fill="#FEFEFE"/>
<path transform="translate(1144,55)" d="m0 0 13 1 29 5 13 4 11 7 10 9 10 13 10 18 15 28 9 12 10 9 15 7 12 3 60 6 61 8 19 3 10 3 4 4 2 6 1 13-3 19-6 22-9 20-8 14-14 19-14 15-14 11-20 13-23 11-18 6-23 5-24 5-30 5-31 7 1 4 11 16 15 23 9 13 9 9 14 8 20 8 11 6 12 12 10 15 12 22 11 21 9 12 14 14 11 9 8 10 2 6v19l-4 15-9 16-12 14-8 8-17 13-10 6-20 9-15 6-44 13h-3l6 16 8 20 11 34 6 27 3 20 1 11v39l-3 29-8 49-5 40v22l2 23-5 3-9 1-5-3-3-7-2-14v-34l4-33 9-51 2-18 1-15v-19l-2-28-5-28-6-22-6-18-9-21-10-18-4-5v-5l11-8 10-6 15-5 20-6 17-5 18-7 18-10 10-8 13-12 7-8 7-14 4-13v-6l-7-8-10-8-7-6-10-13-10-16-14-28-9-14-9-11-11-8-25-11-10-6-12-11-9-10-10-15-13-18-8-10-5-5-7 6-18 20-9 11-14 19-11 12-19 14-12 11-7 7-11 16-9 15-8 16-9 28-9 41-5 19-6 16-8 14-13 16-10 10-11 9-15 12-13 9-16 12-19 14-16 12-16 13-12 11-8 7-31 31-9 11-10 11-26 34-10 15-8 13-9 16-13 26-11 29-9 30-6 29-4 6-2 1-256-1-2-1v-13l4-38 6-36 9-38 9-31 12-35 13-31 11-24 8-16 13-25 12-20 13-22 10-15 16-23 10-13 14-19 24-28 9-11 14-15 9-11 45-45 7-8 16-15 32-32 8-7 15-16 5-5 11-12 8-8 9-11 8-10 10-15 4-5 5 2 18 18 11 8 11 4h20l24-8 19-8 14-7 13-8 15-10 14-13 10-14 8-16 5-15 9-41 13-74 6-23 6-16 2-5-3 3-12 23-10 22-15 58-12 39-9 21-10 14-9 11-7 7-10 7-27 14-13 6-17 4-15 1-9-2-12-7-19-13-12-11-12-12-9-11-13-16-14-18-9-14-6-16-2-10v-17l5-25 5-17 10-21 10-17 12-17 11-13 11-12 14-14 11-9 13-10 15-10 21-11 18-5 20-3 16-1 110-3 18-1z" fill="#016D5E"/>
<path transform="translate(1187,1187)" d="m0 0h33l16 2 15 5 10 7 8 8 7 12 3 10v131l-4 13-6 10-5 6h-2v2l-10 7-8 4-11 3-8 1h-38l-16-1-12-3-11-8-9-9-8-16-2-8-1-9v-122l3-12 7-11 10-10 9-6 13-4z" fill="#009B8D"/>
<path transform="translate(109,1188)" d="m0 0h20l5 5 7 19 9 28 13 44 7 21 3 3 8-24 13-42 11-36 5-13 3-3 3-1h55l2 3 1 33-1 181-1 1h-27l-14-1v-76l-1-82-3 2-12 36-14 48-7 19-5 7-2 1-19-1-14-1-4-6-17-56-8-24-7-19-4-8-2-1 1 19v122l-1 21h-26l-15-1-1-5 1-209 5-2 9-1z" fill="#009B8D"/>
<path transform="translate(1645,1188)" d="m0 0h40l5 5 9 27 21 80 14 52 13 48 1 7h-44l-2-2-6-29-4-10-3-1h-64l-4 17-6 23-2 2h-39l-4-1 3-12 10-36 17-65 16-61 9-29 4-11 3-2z" fill="#009B8D"/>
<path transform="translate(431,1188)" d="m0 0h42l5 4 5 12 8 27 23 89 16 61 6 22v4h-42l-2-1-4-15-6-23-1-3h-65l-3 3-4 15-6 22-2 2h-41l-1-4 8-27 11-42 15-57 13-50 8-27 3-7 3-3z" fill="#009B8D"/>
<path transform="translate(1897,1187)" d="m0 0 26 1 15 3 14 7 9 8 7 10 5 11 3 10 1 10-6 10-7 3h-25l-5-3-4-13-3-9-4-4-11-2h-30l-6 4-3 6-1 5v15l4 8 6 5 9 3 26 3 21 5 16 7 10 9 9 14 5 14 1 8v25l-3 10-7 13-9 10-9 7-11 5-15 3h-47l-16-3-12-7-11-11-8-15-4-18v-12l3-5h36l5 2 1 13 4 9 5 5 6 2h27l9-3 5-4 5-10 1-10-2-8-8-6-13-4-22-4-24-6-12-5-10-8-7-9-5-10-3-12-1-8v-23l2-14 6-12 9-10 13-9 12-4 5-1z" fill="#009B8D"/>
<path transform="translate(684,1187)" d="m0 0h19l18 2 13 4 11 7 9 9 7 12 4 11 2 11v7l-9 8-7 2h-25l-3-3-4-19-3-6-4-2-10-1h-24l-9 2-5 6-3 11v8l3 9 5 5 8 4 8 2 17 1 23 5 16 6 8 6 7 7 8 14 4 13v31l-2 10-7 14-7 8-10 8-9 5-12 3-7 1h-44l-15-2-12-6-10-9-6-7-6-13-4-15v-17l4-2h34l4 3 4 16 4 8 8 4h22l13-2 8-5 5-7 1-3v-15l-2-5-12-6-31-6-28-7-8-4-9-7-7-8-6-13-4-17v-29l3-11 6-12 9-10 11-7 10-4 11-2z" fill="#009B8D"/>
<path transform="translate(961,1188)" d="m0 0 39 1 1 2-5 10-9 12-24 34-14 18-8 12-4 5-1 5 5 9 9 13 14 22 13 21 12 19 9 15 8 14 2 7h-39l-5-1-16-27-10-15-14-22-12-19-5-3-5 4-9 11-5 5-1 6-1 47-1 13-2 1h-33l-5-1-1-4-1-116v-46l1-48 3-2 15-1h22l1 1 1 15 1 69 1 11h2l6-9 7-13 15-22 20-28 7-11 7-9 5-4z" fill="#016E5F"/>
<path transform="translate(1421,1188)" d="m0 0h52l26 1 3 1v14l-2 19-2 3-3 1-41 2-1 1-1 157-1 19-1 1h-29l-11-1-1-177-12-1-33-1-4-2-1-2v-22l2-11 1-1z" fill="#009B8D"/>
<path transform="translate(1180,1228)" d="m0 0h40l9 2 5 5 1 4v114l-3 9-6 4-17 3h-24l-7-3-4-5-3-11v-107l2-9 5-5z" fill="#FEFEFE"/>
<path transform="translate(839,1523)" d="m0 0h33l10 2 6 4 6 9 2 6 1 7v25l-2 9-4 6-8 6 1 6 9 20 9 21v2l-22-1-4-4-8-16-10-21-4-2-13-1v25l-1 17-5 2h-17l-1-1v-118l1-2z" fill="#090B0C"/>
<path transform="translate(1522,1524)" d="m0 0h62l8 4 6 8 3 7 2 17v13l-2 10-6 8-7 6 2 9 13 27 4 12-4 1-16-1-5-2-10-19-9-20-3-2-14-1-1 44h-18l-4-1-1-10z" fill="#090C0C"/>
<path transform="translate(1138,1524)" d="m0 0h18l5 3 6 9 16 32 11 20 6 8 2 1-1-12v-45l1-15 3-1h16l2 1 1 19v33l-1 67-1 1-11 1-6-2-7-9-15-26-16-29-5-8-1 5-1 47-1 21h-20l-1-1z" fill="#090B0B"/>
<path transform="translate(1370,1523)" d="m0 0h14l6 1 6 18 15 58 9 36 2 9h-22l-2-1-4-20-2-3h-37l-2 5-4 17-1 2h-18l-5-1 1-7 11-41 17-67 2-4 2-1z" fill="#090B0C"/>
<path transform="translate(1868,1524)" d="m0 0h32l5 16 21 80 6 25-1 1-20-1-4-2-4-21-1-1h-34l-4 1-3 12-2 10-1 1h-22l-1-2 14-56 13-50 4-12z" fill="#090B0B"/>
<path transform="translate(1040,1189)" d="m0 0h32l2 4v69l-3 42-3 21-2 4-8 1h-16l-7-1-2-9-4-45-2-41v-31l2-11 2-2z" fill="#016F60"/>
<path transform="translate(666,1523)" d="m0 0 47 1-1 16-2 3-3 1-41 1 1 27 39 1v19l-2 2-25 1h-13l1 28 44 1 1 1v16l-1 3-2 1-39 1h-25l-2-1v-121z" fill="#090D0D"/>
<path transform="translate(302,1524)" d="m0 0h70l-1 16-2 3-6 1-27 1-10 1v24l1 2 38 1v20l-1 1-38 2v28h45v20l-1 1-26 1h-41l-1-1z" fill="#09090A"/>
<path transform="translate(113,1524)" d="m0 0h20l3 3 8 35 8 38 4 14 3 4 13-69 5-21 2-3 3-1h21l-3 14-24 94-4 13-2 1h-15l-11-1-4-3-7-24-18-71-4-21z" fill="#090B0C"/>
<path transform="translate(493,1523)" d="m0 0h17l35 1-1 18-5 2-22 1v34l-1 65-5 1h-16l-1-35v-65l-25-2-2-2-1-17z" fill="#090C0D"/>
<path transform="translate(1710,1524)" d="m0 0h19l5 2v104l-1 14-1 1h-21l-1-1z" fill="#090C0C"/>
<path transform="translate(1008,1524)" d="m0 0h20l1 1v118l-7 2h-14l-1-1v-91z" fill="#090B0B"/>
<path transform="translate(1658,1236)" d="m0 0 3 1 5 13 9 35 8 34v8l-12 1h-35l-1-1 1-9 8-31 11-43z" fill="#FEFEFE"/>
<path transform="translate(447,1234)" d="m0 0 3 3 5 16 14 54 3 14v5l-2 2h-39l-7-1-1-3 8-28 13-55z" fill="#FEFEFE"/>
<path transform="translate(1044,1350)" d="m0 0h17l11 1 1 2v42l-1 11-4 1h-29l-8-1-1-11v-43l2-1z" fill="#016F60"/>
<path transform="translate(1552,1544)" d="m0 0h22l5 2 1 3v26l-1 3-5 2-22 1-6-2-1-3v-30z" fill="#FEFEFE"/>
<path transform="translate(851,1544)" d="m0 0h12l8 1 3 4 1 10v15l-2 4-8 2h-23l-1-2v-33z" fill="#FEFEFE"/>
<path transform="translate(1883,1545)" d="m0 0 2 4 6 21 6 27v4l-7 1h-20l-1-4 7-26 4-18z" fill="#FEFEFE"/>
<path transform="translate(1372,1546)" d="m0 0 3 4 8 27 4 19v5h-28l8-34z" fill="#FEFEFE"/>
<path transform="translate(1257,443)" d="m0 0 7 6 10 7 10 5 14 5 13 7 12 12 7 11-4-2v-2h-2v-2l-5 1-9-6h-12l-11-7-7-8-9-5-3-3v-2l-4-2v-2h-2l-5-10z" fill="#009B8D"/>
<path transform="translate(1288,817)" d="m0 0h2l3 24v39l-3 29h-1l-1-9h-2l1-26v-49l-1-5z" fill="#009B8D"/>
<path transform="translate(1294,697)" d="m0 0 11 1v2l-40 12h-2l2-5 5-3 12-4z" fill="#009C8E"/>
<path transform="translate(1355,548)" d="m0 0 4 2 1 2 2-1 7 8 10 10 6 5-1 2-9-5-11-8-5-5-3-4z" fill="#009586"/>
<path transform="translate(962,385)" d="m0 0 3 1-2 2-17 4-15 1-7-1 1-2 6-2h11z" fill="#009B8D"/>
<path transform="translate(877,389)" d="m0 0 5 2 12 12h-3l-5-3-13-4v2l-2-1z" fill="#00998B"/>
<path transform="translate(1399,594)" d="m0 0h1v19l-4 15-3 6h-2v-8l2-3h2l2-10 1-14z" fill="#009A8C"/>
<path transform="translate(961,1188)" d="m0 0 39 1v3l-4-1-35-1z" fill="#009C8E"/>
<path transform="translate(1233,705)" d="m0 0h3l-1 4-2 2h-3l-1 2v-5z" fill="#009A8C"/>
<path transform="translate(1304,677)" d="m0 0 3 1-5 4h-5l-1-2z" fill="#009182"/>
</svg>
